<?xml version="1.0" standalone="no"?>
<!DOCTYPE svg PUBLIC "-//W3C//DTD SVG 20010904//EN"
 "http://www.w3.org/TR/2001/REC-SVG-20010904/DTD/svg10.dtd">
<svg version="1.0" xmlns="http://www.w3.org/2000/svg"
 width="400.000000pt" height="400.000000pt" viewBox="0 0 400.000000 400.000000"
 preserveAspectRatio="xMidYMid meet">
<metadata>
Created by potrace 1.11, written by Peter Selinger 2001-2013
</metadata>
<g transform="translate(0.000000,400.000000) scale(0.100000,-0.100000)"
fill="#000000" stroke="none">
<path d="M0 2000 l0 -2000 2000 0 2000 0 0 2000 0 2000 -2000 0 -2000 0 0
-2000z m3465 934 l25 -27 0 -645 c0 -717 1 -711 -67 -847 -93 -187 -257 -315
-460 -361 -115 -25 -292 -16 -403 22 -196 66 -359 230 -422 424 -30 93 -36
282 -13 385 54 246 259 449 505 501 99 21 272 14 350 -14 102 -36 180 -82 250
-148 l70 -66 0 370 0 370 26 31 c22 26 33 31 70 31 36 0 50 -5 69 -26z m-2089
-554 c202 -51 354 -172 444 -355 68 -138 72 -161 77 -530 6 -369 2 -405 -47
-430 -46 -24 -87 -19 -121 14 -28 28 -29 34 -29 118 l0 88 -38 -40 c-141 -151
-299 -212 -521 -202 -184 8 -310 61 -431 180 -77 77 -125 150 -162 250 -28 72
-32 98 -36 212 -5 152 10 230 63 340 87 178 250 307 450 356 99 25 251 24 351
-1z"/>
<path d="M2660 2212 c-158 -42 -286 -162 -341 -322 -18 -51 -22 -87 -22 -170
0 -120 21 -198 72 -279 197 -307 657 -310 853 -7 55 85 78 168 78 280 0 162
-41 268 -146 373 -127 126 -312 173 -494 125z"/>
<path d="M1072 2215 c-246 -69 -403 -296 -377 -545 15 -136 56 -226 144 -315
183 -185 500 -196 695 -24 109 97 166 228 166 383 -1 106 -11 161 -46 231 -61
122 -156 207 -282 256 -74 28 -224 35 -300 14z"/>
</g>
</svg>
